<svg width="24" height="25" viewBox="0 0 24 25" fill="none" xmlns="http://www.w3.org/2000/svg">
<path d="M4 7.3432L0.757 4.1012L2.172 2.6862L5.414 5.9292H20.656C20.8119 5.92919 20.9656 5.96561 21.1049 6.03557C21.2442 6.10552 21.3652 6.20706 21.4582 6.3321C21.5513 6.45713 21.6139 6.60218 21.6409 6.75569C21.6679 6.90919 21.6587 7.06689 21.614 7.2162L19.214 15.2162C19.1523 15.4223 19.0257 15.603 18.8531 15.7314C18.6805 15.8598 18.4711 15.9292 18.256 15.9292H6V17.9292H17V19.9292H5C4.73478 19.9292 4.48043 19.8238 4.29289 19.6363C4.10536 19.4488 4 19.1944 4 18.9292V7.3432ZM5.5 23.9292C5.10218 23.9292 4.72064 23.7712 4.43934 23.4899C4.15804 23.2086 4 22.827 4 22.4292C4 22.0314 4.15804 21.6498 4.43934 21.3685C4.72064 21.0872 5.10218 20.9292 5.5 20.9292C5.89782 20.9292 6.27936 21.0872 6.56066 21.3685C6.84196 21.6498 7 22.0314 7 22.4292C7 22.827 6.84196 23.2086 6.56066 23.4899C6.27936 23.7712 5.89782 23.9292 5.5 23.9292ZM17.5 23.9292C17.1022 23.9292 16.7206 23.7712 16.4393 23.4899C16.158 23.2086 16 22.827 16 22.4292C16 22.0314 16.158 21.6498 16.4393 21.3685C16.7206 21.0872 17.1022 20.9292 17.5 20.9292C17.8978 20.9292 18.2794 21.0872 18.5607 21.3685C18.842 21.6498 19 22.0314 19 22.4292C19 22.827 18.842 23.2086 18.5607 23.4899C18.2794 23.7712 17.8978 23.9292 17.5 23.9292Z" fill="#656565"/>
</svg>
