<svg width="24" height="25" viewBox="0 0 24 25" fill="none" xmlns="http://www.w3.org/2000/svg">
<g clip-path="url(#clip0_1:12)">
<path fill-rule="evenodd" clip-rule="evenodd" d="M20.6381 9.42675H11.1009H8.62124L8.82192 10.4003C12.5335 10.6487 15.2695 12.2422 16.6126 13.794C17.1292 14.3901 17.4909 15.0279 17.6796 15.6498C17.9558 16.5598 17.8882 17.446 17.4551 18.2248C17.3995 18.3262 17.3379 18.4235 17.2723 18.5189C17.3538 18.6937 17.4153 18.8686 17.465 19.0375C17.4809 19.0832 17.4968 19.1309 17.5087 19.1786H17.5107C17.5743 19.4031 17.6061 19.6216 17.6061 19.8382C17.6061 19.9137 17.6021 19.8899 17.5981 19.9554L17.6001 20.0091H17.6061C17.6061 19.9733 17.6061 19.9515 17.6061 20.0091C17.6061 20.0647 17.6041 20.1223 17.6001 20.18H20.6262L23.1198 9.43073H20.6381V9.42675ZM0.633827 22.2185C5.38058 22.2106 10.1253 22.2046 14.8721 22.2185C15.1542 22.2205 15.3867 22.451 15.3867 22.7332C15.3867 23.5001 15.0648 25.0022 13.3302 25.0022C9.61272 25.0022 5.89519 25.0022 2.17766 25.0022C0.443083 25.0022 0.121202 23.5021 0.121202 22.7332C0.119215 22.449 0.351685 22.2185 0.633827 22.2185ZM11.2638 14.3086C11.701 14.3086 12.0546 14.6623 12.0546 15.0994C12.0546 15.5365 11.701 15.8902 11.2638 15.8902C10.8267 15.8902 10.4731 15.5365 10.4731 15.0994C10.4731 14.6623 10.8267 14.3086 11.2638 14.3086ZM4.36725 14.3642C4.80437 14.3642 5.15804 14.7179 5.15804 15.155C5.15804 15.5922 4.80437 15.9458 4.36725 15.9458C3.93013 15.9458 3.57646 15.5922 3.57646 15.155C3.57646 14.7179 3.93013 14.3642 4.36725 14.3642ZM7.78674 13.6092C8.22386 13.6092 8.57753 13.9629 8.57753 14.4C8.57753 14.8371 8.22386 15.1908 7.78674 15.1908C7.34961 15.1908 6.99594 14.8371 6.99594 14.4C6.99793 13.9629 7.3516 13.6092 7.78674 13.6092ZM14.2005 17.7003H1.47231C0.663631 17.7003 0 17.0386 0 16.23C0 14.1358 4.17452 12.6138 7.67746 12.578C14.5741 12.5085 17.6677 17.7003 14.2005 17.7003ZM15.3529 19.717C15.3748 19.7548 15.3867 19.7925 15.3867 19.8362C15.3867 19.8621 15.3847 19.8919 15.3847 19.9217C15.3867 19.9515 15.3867 19.9793 15.3867 20.0071C15.3867 20.0488 15.3748 20.0886 15.3529 20.1263C15.2357 20.637 14.7668 21.3046 13.3302 21.3046C9.61272 21.3046 5.89519 21.3046 2.17766 21.3046C0.739134 21.3046 0.272208 20.637 0.15498 20.1263C0.133124 20.0886 0.121202 20.0508 0.121202 20.0071C0.121202 19.9813 0.123189 19.9515 0.123189 19.9217C0.121202 19.8919 0.121202 19.864 0.121202 19.8362C0.121202 19.7945 0.133124 19.7548 0.15498 19.717C0.272208 19.2064 0.739134 18.5388 2.17766 18.5388H7.95364L10.0836 20.7383L12.1997 18.5388H13.3322C14.7688 18.5408 15.2357 19.2084 15.3529 19.717ZM17.5981 20.0071C17.6021 20.18 17.6041 20.0707 17.6041 20.0071H17.5981ZM8.63913 5.01579H14.88L15.5596 1.99567C15.7563 1.26647 16.3285 0.859156 17.3379 0.584961C18.1942 0.584961 19.0506 0.584961 19.905 0.584961C20.2964 0.662451 20.5229 0.934659 20.5825 1.40357C20.5825 1.66783 20.5825 1.93011 20.5825 2.19437C20.4533 2.62553 20.1931 2.80038 19.7917 2.87191H17.6498L17.1948 5.01579H23.0999C23.5967 5.01579 24 5.42112 24 5.91587V6.93913C24 7.43586 23.5947 7.8392 23.0999 7.8392H8.63913C8.1424 7.8392 7.73905 7.43387 7.73905 6.93913V5.91587C7.73905 5.42112 8.14438 5.01579 8.63913 5.01579ZM17.163 24.8035H18.2379H18.8579C19.5811 24.6485 20.0838 24.3068 20.2964 23.5895L20.4593 21.8847H17.469C17.5584 22.153 17.6061 22.4371 17.6061 22.7332C17.6061 23.2815 17.5048 24.0505 17.163 24.8035Z" fill="#656565"/>
</g>
<defs>
<clipPath id="clip0_1:12">
<rect width="24" height="24.4153" fill="white" transform="translate(0 0.584961)"/>
</clipPath>
</defs>
</svg>
