<svg width="21" height="21" viewBox="0 0 21 21" fill="none" xmlns="http://www.w3.org/2000/svg">
<path d="M15.5792 10.1298C16.4263 9.28337 17.042 8.23372 17.3673 7.08127C17.6926 5.92883 17.7167 4.71216 17.4372 3.54776L19.9321 2.47776C20.0082 2.44514 20.0912 2.43192 20.1737 2.4393C20.2561 2.44667 20.3355 2.4744 20.4046 2.52C20.4737 2.5656 20.5303 2.62764 20.5695 2.70055C20.6087 2.77347 20.6292 2.85497 20.6292 2.93776V17.1798L13.6292 20.1798L7.62915 17.1798L1.32615 19.8808C1.25006 19.9134 1.16707 19.9266 1.08462 19.9192C1.00216 19.9118 0.92283 19.8841 0.853738 19.8385C0.784645 19.7929 0.727956 19.7309 0.688757 19.658C0.649559 19.585 0.629077 19.5035 0.629151 19.4208V5.17976L3.75815 3.83876C3.53799 4.96433 3.59806 6.12679 3.93306 7.22368C4.26805 8.32057 4.8677 9.31824 5.67915 10.1288L10.6292 15.0798L15.5792 10.1298ZM14.1652 8.71576L10.6292 12.2498L7.09315 8.71476C6.39402 8.01544 5.91795 7.12452 5.72513 6.15465C5.53231 5.18479 5.6314 4.17952 6.00988 3.26597C6.38836 2.35241 7.02922 1.5716 7.85144 1.02225C8.67365 0.472899 9.6403 0.179688 10.6292 0.179688C11.618 0.179688 12.5846 0.472899 13.4069 1.02225C14.2291 1.5716 14.8699 2.35241 15.2484 3.26597C15.6269 4.17952 15.726 5.18479 15.5332 6.15465C15.3404 7.12452 14.8643 8.01544 14.1652 8.71476V8.71576Z" fill="#CCCCCC"/>
</svg>
