<svg width="100" height="100" viewBox="0 0 100 100" fill="none" xmlns="http://www.w3.org/2000/svg">
<path d="M70.625 49.7917C74.1547 46.2651 76.72 41.8915 78.0755 37.0897C79.431 32.2878 79.5313 27.2184 78.3667 22.3667L88.7625 17.9083C89.0795 17.7724 89.4253 17.7174 89.7689 17.7481C90.1124 17.7788 90.443 17.8944 90.7309 18.0844C91.0188 18.2744 91.255 18.5329 91.4183 18.8367C91.5816 19.1405 91.667 19.4801 91.6667 19.825V79.1667L62.5 91.6667L37.5 79.1667L11.2375 90.4208C10.9205 90.5567 10.5747 90.6118 10.2311 90.5811C9.88755 90.5503 9.557 90.4348 9.26911 90.2448C8.98123 90.0548 8.74502 89.7963 8.58169 89.4925C8.41837 89.1887 8.33303 88.8491 8.33333 88.5042V29.1667L21.3708 23.5792C20.4535 28.2691 20.7038 33.1126 22.0996 37.683C23.4954 42.2534 25.9939 46.4103 29.375 49.7875L50 70.4167L70.625 49.7917ZM64.7333 43.9L50 58.625L35.2667 43.8958C32.3536 40.982 30.37 37.2699 29.5666 33.2287C28.7632 29.1876 29.176 24.999 30.753 21.1925C32.33 17.3861 35.0003 14.1327 38.4262 11.8437C41.8521 9.55477 45.8798 8.33305 50 8.33305C54.1202 8.33305 58.1479 9.55477 61.5738 11.8437C64.9997 14.1327 67.67 17.3861 69.247 21.1925C70.824 24.999 71.2368 29.1876 70.4334 33.2287C69.63 37.2699 67.6464 40.982 64.7333 43.8958V43.9Z" fill="#CCCCCC"/>
</svg>
