<svg width="25" height="25" viewBox="0 0 25 25" fill="none" xmlns="http://www.w3.org/2000/svg">
<g clip-path="url(#clip0_1:22)">
<path d="M18.864 18.2932L12.5 24.6572L6.136 18.2932C4.87734 17.0345 4.02018 15.4309 3.67292 13.685C3.32567 11.9392 3.5039 10.1296 4.18509 8.4851C4.86629 6.84057 6.01984 5.43497 7.49988 4.44604C8.97992 3.45712 10.72 2.92928 12.5 2.92928C14.28 2.92928 16.0201 3.45712 17.5001 4.44604C18.9802 5.43497 20.1337 6.84057 20.8149 8.4851C21.4961 10.1296 21.6743 11.9392 21.3271 13.685C20.9798 15.4309 20.1227 17.0345 18.864 18.2932V18.2932ZM12.5 13.9292C13.0304 13.9292 13.5391 13.7185 13.9142 13.3434C14.2893 12.9683 14.5 12.4596 14.5 11.9292C14.5 11.3988 14.2893 10.8901 13.9142 10.515C13.5391 10.1399 13.0304 9.9292 12.5 9.9292C11.9696 9.9292 11.4609 10.1399 11.0858 10.515C10.7107 10.8901 10.5 11.3988 10.5 11.9292C10.5 12.4596 10.7107 12.9683 11.0858 13.3434C11.4609 13.7185 11.9696 13.9292 12.5 13.9292Z" fill="#656565"/>
</g>
<defs>
<clipPath id="clip0_1:22">
<rect width="24" height="24" fill="white" transform="translate(0.5 0.929199)"/>
</clipPath>
</defs>
</svg>
