<svg width="119" height="104" viewBox="0 0 119 104" fill="none" xmlns="http://www.w3.org/2000/svg">
<path fill-rule="evenodd" clip-rule="evenodd" d="M95.6109 36.8408H55.8725H45.5405L46.3767 40.8974C61.8415 41.9323 73.2415 48.5719 78.838 55.0377C80.9905 57.5213 82.4972 60.1788 83.2837 62.7701C84.4345 66.5618 84.153 70.2542 82.3482 73.4995C82.1164 73.9217 81.8597 74.3273 81.5865 74.7247C81.926 75.4533 82.1826 76.1818 82.3896 76.8855C82.4558 77.0759 82.522 77.2746 82.5717 77.4733H82.58C82.8449 78.4088 82.9774 79.3195 82.9774 80.2219C82.9774 80.5365 82.9608 80.4371 82.9443 80.7103L82.9525 80.9339H82.9774C82.9774 80.7848 82.9774 80.6938 82.9774 80.9339C82.9774 81.1657 82.9691 81.4057 82.9525 81.6458H95.5612L105.951 36.8574H95.6109V36.8408ZM12.2596 90.1399C32.0377 90.1068 51.8076 90.082 71.5857 90.1399C72.7613 90.1482 73.7299 91.1085 73.7299 92.2841C73.7299 95.4798 72.3887 101.739 65.1613 101.739C49.6716 101.739 34.1819 101.739 18.6923 101.739C11.4648 101.739 10.1237 95.488 10.1237 92.2841C10.1154 91.1003 11.084 90.1399 12.2596 90.1399ZM56.5513 57.1819C58.3727 57.1819 59.8463 58.6555 59.8463 60.4769C59.8463 62.2982 58.3727 63.7718 56.5513 63.7718C54.73 63.7718 53.2564 62.2982 53.2564 60.4769C53.2564 58.6555 54.73 57.1819 56.5513 57.1819ZM27.8155 57.4137C29.6369 57.4137 31.1105 58.8873 31.1105 60.7087C31.1105 62.53 29.6369 64.0036 27.8155 64.0036C25.9942 64.0036 24.5205 62.53 24.5205 60.7087C24.5205 58.8873 25.9942 57.4137 27.8155 57.4137ZM42.0634 54.2677C43.8847 54.2677 45.3584 55.7414 45.3584 57.5627C45.3584 59.3841 43.8847 60.8577 42.0634 60.8577C40.242 60.8577 38.7684 59.3841 38.7684 57.5627C38.7767 55.7414 40.2503 54.2677 42.0634 54.2677ZM68.7875 71.3139H15.7533C12.3838 71.3139 9.61865 68.557 9.61865 65.1875C9.61865 56.4616 27.0125 50.12 41.6081 49.971C70.3439 49.6813 83.234 71.3139 68.7875 71.3139ZM73.5892 79.7169C73.6802 79.8742 73.7299 80.0315 73.7299 80.2136C73.7299 80.3212 73.7216 80.4454 73.7216 80.5696C73.7299 80.6938 73.7299 80.8097 73.7299 80.9256C73.7299 81.0994 73.6802 81.265 73.5892 81.4223C73.1007 83.55 71.1469 86.3317 65.1613 86.3317C49.6716 86.3317 34.1819 86.3317 18.6923 86.3317C12.6984 86.3317 10.7529 83.55 10.2644 81.4223C10.1733 81.265 10.1237 81.1077 10.1237 80.9256C10.1237 80.818 10.1319 80.6938 10.1319 80.5696C10.1237 80.4454 10.1237 80.3295 10.1237 80.2136C10.1237 80.0397 10.1733 79.8742 10.2644 79.7169C10.7529 77.5892 12.6984 74.8075 18.6923 74.8075H42.7588L51.6337 83.9722L60.4507 74.8075H65.1696C71.1552 74.8158 73.1007 77.5975 73.5892 79.7169ZM82.9443 80.9256C82.9608 81.6458 82.9691 81.1905 82.9691 80.9256H82.9443ZM45.615 18.4618H71.6188L74.4502 5.87797C75.2698 2.83964 77.6541 1.14248 81.8597 0C85.4279 0 88.9961 0 92.556 0C94.1869 0.322874 95.1307 1.45707 95.3791 3.41088C95.3791 4.51196 95.3791 5.60477 95.3791 6.70585C94.8409 8.50236 93.7564 9.2309 92.0841 9.52893H83.1595L81.2637 18.4618H105.868C107.938 18.4618 109.619 20.1507 109.619 22.2121V26.4757C109.619 28.5454 107.93 30.226 105.868 30.226H45.615C43.5453 30.226 41.8647 28.5371 41.8647 26.4757V22.2121C41.8647 20.1507 43.5536 18.4618 45.615 18.4618ZM81.1312 100.911H85.61H88.193C91.2065 100.265 93.3011 98.841 94.1869 95.8523L94.8658 88.7491H82.4061C82.7787 89.8667 82.9774 91.0506 82.9774 92.2841C82.9774 94.5691 82.5552 97.773 81.1312 100.911Z" fill="#CCCCCC"/>
<path d="M2 101.739L117.237 35.9814" stroke="white" stroke-width="5"/>
</svg>
