<svg width="122" height="100" viewBox="0 0 122 100" fill="none" xmlns="http://www.w3.org/2000/svg">
<path d="M92.8333 33.3333H105.333L117.833 50.2333V75H109.354C108.859 78.4762 107.126 81.657 104.474 83.9581C101.821 86.2592 98.428 87.5261 94.9167 87.5261C91.4053 87.5261 88.0119 86.2592 85.3597 83.9581C82.7074 81.657 80.9745 78.4762 80.4792 75H59.3542C58.8588 78.4762 57.1259 81.657 54.4737 83.9581C51.8214 86.2592 48.428 87.5261 44.9167 87.5261C41.4053 87.5261 38.0119 86.2592 35.3597 83.9581C32.7074 81.657 30.9745 78.4762 30.4792 75H26.1667V25C26.1667 23.8949 26.6057 22.8351 27.3871 22.0537C28.1685 21.2723 29.2283 20.8333 30.3333 20.8333H88.6667C89.7717 20.8333 90.8315 21.2723 91.6129 22.0537C92.3943 22.8351 92.8333 23.8949 92.8333 25V33.3333ZM92.8333 41.6667V54.1667H109.5V52.9792L101.133 41.6667H92.8333Z" fill="#CCCCCC"/>
<path d="M1.8866 87.5264L117.124 21.769" stroke="white" stroke-width="5"/>
</svg>
