<svg width="25" height="25" viewBox="0 0 25 25" fill="none" xmlns="http://www.w3.org/2000/svg">
<path d="M11.8428 2.9292C16.8108 2.9292 20.8428 6.9612 20.8428 11.9292C20.8428 16.8972 16.8108 20.9292 11.8428 20.9292C6.87477 20.9292 2.84277 16.8972 2.84277 11.9292C2.84277 6.9612 6.87477 2.9292 11.8428 2.9292ZM11.8428 18.9292C15.7098 18.9292 18.8428 15.7962 18.8428 11.9292C18.8428 8.0612 15.7098 4.9292 11.8428 4.9292C7.97477 4.9292 4.84277 8.0612 4.84277 11.9292C4.84277 15.7962 7.97477 18.9292 11.8428 18.9292ZM20.3278 19.0002L23.1568 21.8282L21.7418 23.2432L18.9138 20.4142L20.3278 19.0002V19.0002Z" fill="#443DF6"/>
</svg>
