<svg width="24" height="25" viewBox="0 0 24 25" fill="none" xmlns="http://www.w3.org/2000/svg">
<path d="M20 22.8076H4V20.8076C4 19.4815 4.52678 18.2098 5.46447 17.2721C6.40215 16.3344 7.67392 15.8076 9 15.8076H15C16.3261 15.8076 17.5979 16.3344 18.5355 17.2721C19.4732 18.2098 20 19.4815 20 20.8076V22.8076ZM12 13.8076C11.2121 13.8076 10.4319 13.6524 9.7039 13.3509C8.97595 13.0494 8.31451 12.6074 7.75736 12.0503C7.20021 11.4931 6.75825 10.8317 6.45672 10.1037C6.15519 9.37576 6 8.59555 6 7.80762C6 7.01969 6.15519 6.23947 6.45672 5.51152C6.75825 4.78356 7.20021 4.12213 7.75736 3.56498C8.31451 3.00782 8.97595 2.56587 9.7039 2.26434C10.4319 1.96281 11.2121 1.80762 12 1.80762C13.5913 1.80762 15.1174 2.43976 16.2426 3.56498C17.3679 4.69019 18 6.21632 18 7.80762C18 9.39892 17.3679 10.925 16.2426 12.0503C15.1174 13.1755 13.5913 13.8076 12 13.8076V13.8076Z" fill="#656565"/>
</svg>
